<mxfile host="app.diagrams.net" modified="2024-02-22T18:48:31.627Z" agent="Mozilla/5.0 (Windows NT 10.0; Win64; x64) AppleWebKit/537.36 (KHTML, like Gecko) Chrome/121.0.0.0 Safari/537.36" etag="Q5Erggxqt89m_EMPa1x7" version="23.1.5" type="github">
  <diagram name="Halaman-1" id="JWCdcSVpEITs_3PXwoQ5">
    <mxGraphModel dx="1395" dy="653" grid="1" gridSize="10" guides="1" tooltips="1" connect="1" arrows="1" fold="1" page="1" pageScale="1" pageWidth="827" pageHeight="1169" math="0" shadow="0">
      <root>
        <mxCell id="0" />
        <mxCell id="1" parent="0" />
        <mxCell id="eMpC2xGucfPzEUAM92Bm-1" value="Actor" style="shape=umlActor;verticalLabelPosition=bottom;verticalAlign=top;html=1;" vertex="1" parent="1">
          <mxGeometry x="50" y="270" width="30" height="50" as="geometry" />
        </mxCell>
        <mxCell id="eMpC2xGucfPzEUAM92Bm-2" value="" style="endArrow=classic;html=1;rounded=0;" edge="1" parent="1">
          <mxGeometry width="50" height="50" relative="1" as="geometry">
            <mxPoint x="90" y="290" as="sourcePoint" />
            <mxPoint x="170" y="290" as="targetPoint" />
          </mxGeometry>
        </mxCell>
        <mxCell id="eMpC2xGucfPzEUAM92Bm-3" value="Home" style="ellipse;whiteSpace=wrap;html=1;" vertex="1" parent="1">
          <mxGeometry x="170" y="270" width="60" height="40" as="geometry" />
        </mxCell>
        <mxCell id="eMpC2xGucfPzEUAM92Bm-4" value="" style="endArrow=none;html=1;rounded=0;" edge="1" parent="1">
          <mxGeometry width="50" height="50" relative="1" as="geometry">
            <mxPoint x="90" y="310" as="sourcePoint" />
            <mxPoint x="140" y="310" as="targetPoint" />
          </mxGeometry>
        </mxCell>
        <mxCell id="eMpC2xGucfPzEUAM92Bm-5" value="" style="endArrow=classic;html=1;rounded=0;" edge="1" parent="1">
          <mxGeometry width="50" height="50" relative="1" as="geometry">
            <mxPoint x="140" y="310" as="sourcePoint" />
            <mxPoint x="140" y="360" as="targetPoint" />
          </mxGeometry>
        </mxCell>
        <mxCell id="eMpC2xGucfPzEUAM92Bm-6" value="&lt;font style=&quot;font-size: 10px;&quot;&gt;Login&lt;br&gt;Pengguna&lt;/font&gt;" style="ellipse;whiteSpace=wrap;html=1;" vertex="1" parent="1">
          <mxGeometry x="110" y="360" width="60" height="40" as="geometry" />
        </mxCell>
        <mxCell id="eMpC2xGucfPzEUAM92Bm-7" value="&amp;lt;&amp;lt;include&amp;gt;&amp;gt;" style="html=1;verticalAlign=bottom;labelBackgroundColor=none;endArrow=open;endFill=0;dashed=1;rounded=0;exitX=0.5;exitY=1;exitDx=0;exitDy=0;" edge="1" parent="1" source="eMpC2xGucfPzEUAM92Bm-6">
          <mxGeometry width="160" relative="1" as="geometry">
            <mxPoint x="280" y="350" as="sourcePoint" />
            <mxPoint x="140" y="460" as="targetPoint" />
          </mxGeometry>
        </mxCell>
        <mxCell id="eMpC2xGucfPzEUAM92Bm-8" value="&lt;font style=&quot;font-size: 10px;&quot;&gt;Register&lt;/font&gt;" style="ellipse;whiteSpace=wrap;html=1;" vertex="1" parent="1">
          <mxGeometry x="110" y="460" width="60" height="40" as="geometry" />
        </mxCell>
        <mxCell id="eMpC2xGucfPzEUAM92Bm-9" value="&amp;lt;&amp;lt;extend&amp;gt;&amp;gt;" style="endArrow=open;endSize=12;dashed=1;html=1;rounded=0;exitX=1.097;exitY=0.592;exitDx=0;exitDy=0;exitPerimeter=0;entryX=-0.001;entryY=0.512;entryDx=0;entryDy=0;entryPerimeter=0;" edge="1" parent="1" source="eMpC2xGucfPzEUAM92Bm-3" target="eMpC2xGucfPzEUAM92Bm-10">
          <mxGeometry width="160" relative="1" as="geometry">
            <mxPoint x="230" y="310" as="sourcePoint" />
            <mxPoint x="300" y="200" as="targetPoint" />
          </mxGeometry>
        </mxCell>
        <mxCell id="eMpC2xGucfPzEUAM92Bm-10" value="&lt;font style=&quot;font-size: 10px;&quot;&gt;About&lt;/font&gt;" style="ellipse;whiteSpace=wrap;html=1;" vertex="1" parent="1">
          <mxGeometry x="354" y="190" width="60" height="40" as="geometry" />
        </mxCell>
        <mxCell id="eMpC2xGucfPzEUAM92Bm-12" value="&amp;lt;&amp;lt;extend&amp;gt;&amp;gt;" style="endArrow=open;endSize=12;dashed=1;html=1;rounded=0;entryX=0;entryY=0.5;entryDx=0;entryDy=0;" edge="1" parent="1" target="eMpC2xGucfPzEUAM92Bm-17">
          <mxGeometry width="160" relative="1" as="geometry">
            <mxPoint x="240" y="300" as="sourcePoint" />
            <mxPoint x="351.424" y="300.6" as="targetPoint" />
          </mxGeometry>
        </mxCell>
        <mxCell id="eMpC2xGucfPzEUAM92Bm-14" value="&lt;font style=&quot;font-size: 9px;&quot;&gt;&amp;lt;&amp;lt;include&amp;gt;&amp;gt;&lt;/font&gt;" style="html=1;verticalAlign=bottom;labelBackgroundColor=none;endArrow=open;endFill=0;dashed=1;rounded=0;exitX=1.014;exitY=0.619;exitDx=0;exitDy=0;exitPerimeter=0;" edge="1" parent="1" source="eMpC2xGucfPzEUAM92Bm-17">
          <mxGeometry width="160" relative="1" as="geometry">
            <mxPoint x="412.91200000000003" y="305.20000000000005" as="sourcePoint" />
            <mxPoint x="500" y="305" as="targetPoint" />
          </mxGeometry>
        </mxCell>
        <mxCell id="eMpC2xGucfPzEUAM92Bm-15" value="&lt;font style=&quot;&quot;&gt;&lt;font style=&quot;font-size: 9px;&quot;&gt;Detail&lt;br&gt;Product&lt;/font&gt;&lt;br&gt;&lt;/font&gt;" style="ellipse;whiteSpace=wrap;html=1;" vertex="1" parent="1">
          <mxGeometry x="500" y="280" width="56" height="40" as="geometry" />
        </mxCell>
        <mxCell id="eMpC2xGucfPzEUAM92Bm-16" value="&amp;lt;&amp;lt;extend&amp;gt;&amp;gt;" style="endArrow=open;endSize=12;dashed=1;html=1;rounded=0;entryX=0.006;entryY=0.553;entryDx=0;entryDy=0;entryPerimeter=0;" edge="1" parent="1" target="eMpC2xGucfPzEUAM92Bm-18">
          <mxGeometry width="160" relative="1" as="geometry">
            <mxPoint x="250" y="310" as="sourcePoint" />
            <mxPoint x="330" y="370" as="targetPoint" />
          </mxGeometry>
        </mxCell>
        <mxCell id="eMpC2xGucfPzEUAM92Bm-17" value="&lt;font style=&quot;font-size: 10px;&quot;&gt;Categories&lt;/font&gt;" style="ellipse;whiteSpace=wrap;html=1;" vertex="1" parent="1">
          <mxGeometry x="354" y="280" width="56" height="40" as="geometry" />
        </mxCell>
        <mxCell id="eMpC2xGucfPzEUAM92Bm-18" value="&lt;font style=&quot;font-size: 10px;&quot;&gt;Blog&lt;/font&gt;" style="ellipse;whiteSpace=wrap;html=1;" vertex="1" parent="1">
          <mxGeometry x="354" y="360" width="56" height="40" as="geometry" />
        </mxCell>
        <mxCell id="eMpC2xGucfPzEUAM92Bm-20" value="&lt;font style=&quot;font-size: 9px;&quot;&gt;&amp;lt;&amp;lt;include&amp;gt;&amp;gt;&lt;/font&gt;" style="html=1;verticalAlign=bottom;labelBackgroundColor=none;endArrow=open;endFill=0;dashed=1;rounded=0;exitX=1.052;exitY=0.63;exitDx=0;exitDy=0;exitPerimeter=0;" edge="1" parent="1">
          <mxGeometry width="160" relative="1" as="geometry">
            <mxPoint x="410.002" y="379.86" as="sourcePoint" />
            <mxPoint x="497.09" y="379.65999999999997" as="targetPoint" />
          </mxGeometry>
        </mxCell>
        <mxCell id="eMpC2xGucfPzEUAM92Bm-21" value="&lt;font style=&quot;&quot;&gt;&lt;font style=&quot;font-size: 10px;&quot;&gt;&lt;font style=&quot;&quot;&gt;Detail&lt;br&gt;&lt;/font&gt;Blog&lt;/font&gt;&lt;br&gt;&lt;/font&gt;" style="ellipse;whiteSpace=wrap;html=1;" vertex="1" parent="1">
          <mxGeometry x="500" y="360" width="56" height="40" as="geometry" />
        </mxCell>
        <mxCell id="eMpC2xGucfPzEUAM92Bm-22" value="Actor" style="shape=umlActor;verticalLabelPosition=bottom;verticalAlign=top;html=1;" vertex="1" parent="1">
          <mxGeometry x="820" y="270" width="30" height="50" as="geometry" />
        </mxCell>
        <mxCell id="eMpC2xGucfPzEUAM92Bm-23" value="" style="endArrow=classic;html=1;rounded=0;" edge="1" parent="1">
          <mxGeometry width="50" height="50" relative="1" as="geometry">
            <mxPoint x="850" y="299.58000000000004" as="sourcePoint" />
            <mxPoint x="930" y="299.58000000000004" as="targetPoint" />
          </mxGeometry>
        </mxCell>
        <mxCell id="eMpC2xGucfPzEUAM92Bm-25" value="Login&lt;br&gt;Admin" style="ellipse;whiteSpace=wrap;html=1;" vertex="1" parent="1">
          <mxGeometry x="930" y="280" width="60" height="40" as="geometry" />
        </mxCell>
      </root>
    </mxGraphModel>
  </diagram>
</mxfile>
